#
v 1.000000 -1.000000 -1.000000
v 1.000000 -1.000000 1.000000
v -1.000000 -1.000000 1.000000
v -1.000000 -1.000000 -1.000000
v 1.000000 1.000000 -0.999999
v 0.999999 1.000000 1.000001
v -1.000000 1.000000 1.000000
v -1.000000 1.000000 -1.000000
v 1.000000 -1.000000 -1.000000
v 1.000000 -1.000000 1.000000
v -1.000000 -1.000000 -1.000000
v 1.000000 1.000000 -0.999999
v -1.000000 -1.000000 1.000000
v -1.000000 1.000000 1.000000
v -1.000000 1.000000 -1.000000
v 3.685393 -1.000000 -0.999999
v 3.685393 -1.000000 1.000001
v 3.685393 1.000000 -0.999999
v 3.685392 1.000000 1.000001
v 3.685393 -1.000000 -0.999999
v 3.685393 -1.000000 1.000001
v 3.685393 1.000000 -0.999999
v 3.685392 1.000000 1.000001
v 0.999999 -1.000001 5.732928
v -1.000001 -1.000001 5.732928
v 0.999998 0.999999 5.732929
v -1.000001 0.999999 5.732928
v 3.685392 -1.000001 5.732929
v 3.685391 0.999999 5.732930
v 3.685392 1.000000 2.407250
v 0.999998 2.922037 5.732929
v 1.000000 2.922038 -0.227865
v -0.227866 2.922038 -0.227866
v -0.227866 2.922038 1.000000
v 2.913259 2.922038 -0.227865
v 2.913258 2.922038 1.000001
v -0.227867 2.922037 4.960795
v 2.913257 2.922037 4.960796
v 1.000000 2.922038 -0.999999
v -1.000000 2.922038 -1.000000
v -1.000000 2.922038 1.000000
v 3.685393 2.922038 -0.999998
v 3.685392 2.922038 1.000002
v 0.999999 2.922037 4.960795
v -1.000001 2.922037 5.732928
v 3.685391 2.922037 5.732930
v 0.999999 6.177944 1.000001
v 0.999999 6.177943 4.960796
v 1.000000 6.177944 -0.227865
v -0.227866 6.177944 1.000000
v 2.913258 6.177944 1.000002
v -0.227866 6.177944 -0.227865
v 2.913259 6.177944 -0.227864
v -0.227867 6.177943 4.960795
v 2.913257 6.177943 4.960796
v 1.000000 -1.000000 2.407248
v -1.000000 -1.000000 2.407248
v 3.685393 -1.000000 2.407249
v -1.000001 1.000000 2.407248
v 3.685392 2.922038 2.407250
v -1.000001 2.922038 2.407248
v 2.913258 2.922038 2.177670
v -0.227867 2.922038 2.177669
v 0.999999 6.177944 2.177670
v 2.913258 6.177944 2.177670
v -0.227867 6.177944 2.177669
v 5.168629 -0.999999 1.000001
v 5.168628 1.000001 1.000002
v 5.168627 1.000000 2.407250
v 5.168628 -1.000000 2.407250
v 5.158150 1.000000 2.407250
v 5.158150 1.000000 1.000002
v 5.158150 2.922038 2.407251
v 5.158150 2.922038 1.000002
vn 0.0000 1.0000 0.0000
vn 0.0000 -1.0000 0.0000
vn -1.0000 0.0000 0.0000
vn 0.0000 0.0000 -1.0000
vn 1.0000 0.0000 0.0000
vn -0.0000 -0.0000 1.0000
#
f 4/1/1 2/1/1 1/1/1
f 6/1/2 8/1/2 5/1/2
f 2/1/3 5/1/3 1/1/3
f 3/1/4 6/1/4 2/1/4
f 3/1/5 8/1/5 7/1/5
f 8/1/6 1/1/6 5/1/6
f 10/1/2 11/1/2 9/1/2
f 30/1/6 73/1/6 60/1/6
f 18/1/5 43/1/5 19/1/5
f 57/1/2 24/1/2 25/1/2
f 13/1/3 15/1/3 11/1/3
f 9/1/4 15/1/4 12/1/4
f 19/1/6 21/1/6 23/1/6
f 18/1/4 39/1/4 42/1/4
f 12/1/4 16/1/4 9/1/4
f 10/1/2 16/1/2 17/1/2
f 22/1/5 21/1/5 20/1/5
f 17/1/6 20/1/6 21/1/6
f 18/1/6 23/1/6 22/1/6
f 16/1/6 22/1/6 20/1/6
f 26/1/6 25/1/6 24/1/6
f 24/1/6 29/1/6 26/1/6
f 30/1/5 28/1/5 58/1/5
f 27/1/3 61/1/3 59/1/3
f 57/1/3 27/1/3 59/1/3
f 58/1/2 24/1/2 56/1/2
f 37/1/3 66/1/3 63/1/3
f 33/1/4 49/1/4 32/1/4
f 35/1/5 51/1/5 36/1/5
f 44/1/6 54/1/6 37/1/6
f 29/1/6 31/1/6 26/1/6
f 14/1/3 40/1/3 15/1/3
f 26/1/6 45/1/6 27/1/6
f 15/1/4 39/1/4 12/1/4
f 33/1/1 39/1/1 40/1/1
f 33/1/1 41/1/1 34/1/1
f 35/1/1 43/1/1 42/1/1
f 35/1/1 39/1/1 32/1/1
f 37/1/1 31/1/1 44/1/1
f 38/1/1 31/1/1 46/1/1
f 38/1/1 60/1/1 62/1/1
f 63/1/1 41/1/1 61/1/1
f 49/1/1 50/1/1 47/1/1
f 49/1/1 51/1/1 53/1/1
f 64/1/1 55/1/1 65/1/1
f 64/1/1 54/1/1 48/1/1
f 38/1/6 48/1/6 44/1/6
f 32/1/4 53/1/4 35/1/4
f 34/1/3 52/1/3 33/1/3
f 36/1/5 65/1/5 62/1/5
f 38/1/5 65/1/5 55/1/5
f 47/1/1 66/1/1 64/1/1
f 47/1/1 65/1/1 51/1/1
f 37/1/1 61/1/1 45/1/1
f 62/1/1 43/1/1 36/1/1
f 34/1/3 66/1/3 50/1/3
f 17/1/2 56/1/2 10/1/2
f 13/1/3 59/1/3 14/1/3
f 14/1/3 61/1/3 41/1/3
f 17/1/2 70/1/2 58/1/2
f 10/1/2 57/1/2 13/1/2
f 30/1/5 46/1/5 29/1/5
f 68/1/5 70/1/5 67/1/5
f 19/1/4 67/1/4 17/1/4
f 30/1/6 70/1/6 69/1/6
f 30/1/1 68/1/1 19/1/1
f 72/1/5 73/1/5 71/1/5
f 43/1/4 72/1/4 19/1/4
f 60/1/1 74/1/1 43/1/1
f 19/1/2 71/1/2 30/1/2
f 4/1/1 3/1/1 2/1/1
f 6/1/2 7/1/2 8/1/2
f 2/1/3 6/1/3 5/1/3
f 3/1/4 7/1/4 6/1/4
f 3/1/5 4/1/5 8/1/5
f 8/1/6 4/1/6 1/1/6
f 10/1/2 13/1/2 11/1/2
f 30/1/6 71/1/6 73/1/6
f 18/1/5 42/1/5 43/1/5
f 57/1/2 56/1/2 24/1/2
f 13/1/3 14/1/3 15/1/3
f 9/1/4 11/1/4 15/1/4
f 19/1/6 17/1/6 21/1/6
f 18/1/4 12/1/4 39/1/4
f 12/1/4 18/1/4 16/1/4
f 10/1/2 9/1/2 16/1/2
f 22/1/5 23/1/5 21/1/5
f 17/1/6 16/1/6 20/1/6
f 18/1/6 19/1/6 23/1/6
f 16/1/6 18/1/6 22/1/6
f 26/1/6 27/1/6 25/1/6
f 24/1/6 28/1/6 29/1/6
f 30/1/5 29/1/5 28/1/5
f 27/1/3 45/1/3 61/1/3
f 57/1/3 25/1/3 27/1/3
f 58/1/2 28/1/2 24/1/2
f 37/1/3 54/1/3 66/1/3
f 33/1/4 52/1/4 49/1/4
f 35/1/5 53/1/5 51/1/5
f 44/1/6 48/1/6 54/1/6
f 29/1/6 46/1/6 31/1/6
f 14/1/3 41/1/3 40/1/3
f 26/1/6 31/1/6 45/1/6
f 15/1/4 40/1/4 39/1/4
f 33/1/1 32/1/1 39/1/1
f 33/1/1 40/1/1 41/1/1
f 35/1/1 36/1/1 43/1/1
f 35/1/1 42/1/1 39/1/1
f 37/1/1 45/1/1 31/1/1
f 38/1/1 44/1/1 31/1/1
f 38/1/1 46/1/1 60/1/1
f 63/1/1 34/1/1 41/1/1
f 49/1/1 52/1/1 50/1/1
f 49/1/1 47/1/1 51/1/1
f 64/1/1 48/1/1 55/1/1
f 64/1/1 66/1/1 54/1/1
f 38/1/6 55/1/6 48/1/6
f 32/1/4 49/1/4 53/1/4
f 34/1/3 50/1/3 52/1/3
f 36/1/5 51/1/5 65/1/5
f 38/1/5 62/1/5 65/1/5
f 47/1/1 50/1/1 66/1/1
f 47/1/1 64/1/1 65/1/1
f 37/1/1 63/1/1 61/1/1
f 62/1/1 60/1/1 43/1/1
f 34/1/3 63/1/3 66/1/3
f 17/1/2 58/1/2 56/1/2
f 13/1/3 57/1/3 59/1/3
f 14/1/3 59/1/3 61/1/3
f 17/1/2 67/1/2 70/1/2
f 10/1/2 56/1/2 57/1/2
f 30/1/5 60/1/5 46/1/5
f 68/1/5 69/1/5 70/1/5
f 19/1/4 68/1/4 67/1/4
f 30/1/6 58/1/6 70/1/6
f 30/1/1 69/1/1 68/1/1
f 72/1/5 74/1/5 73/1/5
f 43/1/4 74/1/4 72/1/4
f 60/1/1 73/1/1 74/1/1
f 19/1/2 72/1/2 71/1/2
#
